<?xml version="1.0" standalone="no"?><!DOCTYPE svg PUBLIC "-//W3C//DTD SVG 1.1//EN" "http://www.w3.org/Graphics/SVG/1.1/DTD/svg11.dtd"><svg t="1575016147103" class="icon" viewBox="0 0 1024 1024" version="1.1" xmlns="http://www.w3.org/2000/svg" p-id="1388" width="128" height="128" xmlns:xlink="http://www.w3.org/1999/xlink"><defs><style type="text/css"></style></defs><path d="M141.23603108 654.46517319a113.99317094 113.99317094 0 0 1 113.72352438-113.92575912H369.08755006a113.99317094 113.99317094 0 0 1 113.72352438 113.92575912v114.59987665A113.99317094 113.99317094 0 0 1 369.08755006 882.78857422H254.95955546A113.99317094 113.99317094 0 0 1 141.23603108 768.79540327v-114.59987665z m0-399.21204009A113.99317094 113.99317094 0 0 1 254.95955546 141.25996215H369.08755006a113.99317094 113.99317094 0 0 1 113.72352438 113.99317095v114.59987667A113.99317094 113.99317094 0 0 1 369.08755006 483.84618072H254.95955546A113.99317094 113.99317094 0 0 1 141.23603108 369.51595136v-114.59987666zM640.08255163 170.51663628a99.97153958 99.97153958 0 0 1 141.5645538 1e-8l70.91709947 71.05192385a100.44342092 100.44342092 0 0 1 0 141.56455308L781.64710543 454.11762451a99.83671593 99.83671593 0 0 1-141.5645538 0L569.16545215 383.13311322a100.44342092 100.44342092 0 0 1 1e-8-141.56455308zM539.97618912 654.46517319a113.99317094 113.99317094 0 0 1 113.72352436-113.92575912h114.06058278a113.99317094 113.99317094 0 0 1 113.72352439 113.92575912v114.59987665A113.99317094 113.99317094 0 0 1 767.55806152 882.78857422H653.56489056a113.99317094 113.99317094 0 0 1-113.72352437-113.99317094v-114.59987666z m0 0" fill="#006cb7" p-id="1389"></path></svg>