<?xml version="1.0" standalone="no"?><!DOCTYPE svg PUBLIC "-//W3C//DTD SVG 1.1//EN" "http://www.w3.org/Graphics/SVG/1.1/DTD/svg11.dtd"><svg t="1531905214962" class="icon" style="" viewBox="0 0 1024 1024" version="1.1" xmlns="http://www.w3.org/2000/svg" p-id="8188" xmlns:xlink="http://www.w3.org/1999/xlink" width="32" height="32"><defs><style type="text/css"></style></defs><path d="M638.334825 512.528026L952.814216 203.461925c-7.172353-14.97711-22.470781-25.320689-40.179095-25.320689H111.374088c-17.71036 0-33.002648 10.342556-40.172954 25.320689l314.472227 309.068148c69.77004 43.969421 182.886307 43.969421 252.661464-0.002047zM66.861292 264.86746V760.851695l261.390265-248.624521L66.861292 264.86746z m628.884081 247.358691L957.137685 760.851695V264.86746L695.745373 512.226151zM654.805962 550.981826c-78.879512 50.042743-206.738551 50.042743-285.608854 0l-11.772114-11.148921L71.890842 821.888839c7.427156 14.234189 22.318308 23.968901 39.483246 23.968901h801.257963c17.168008 0 32.054043-9.735735 39.48427-23.968901L666.584216 539.833929l-11.778254 11.147897z" p-id="8189" fill="#409EFF"></path></svg>