<?xml version="1.0" standalone="no"?><!DOCTYPE svg PUBLIC "-//W3C//DTD SVG 1.1//EN" "http://www.w3.org/Graphics/SVG/1.1/DTD/svg11.dtd"><svg t="1531905180181" class="icon" style="" viewBox="0 0 1024 1024" version="1.1" xmlns="http://www.w3.org/2000/svg" p-id="7545" xmlns:xlink="http://www.w3.org/1999/xlink" width="32" height="32"><defs><style type="text/css"></style></defs><path d="M639.194164 108.365744c-68.45768-43.080244-179.381633-43.080244-247.839312 0L66.87159 328.576397l319.980813 293.682422c68.45768 43.080244 179.381633 43.080244 247.839313 0l322.436694-293.580094-317.934246-220.312981z m-96.495653 516.041971c-9.823524 7.674628-20.670331 10.949136-30.800839 10.64215-10.130509 0.306985-20.977316-2.967523-30.80084-10.64215l-143.259718-111.230939c-16.372539-12.791046-26.093734-32.540422-26.093734-53.415409V293.375437c0-13.81433 11.256121-25.070451 25.07045-25.07045h350.270011c13.81433 0 25.070451 11.256121 25.070451 25.07045v166.283602c0 20.874988-9.618867 40.624363-26.196063 53.517737l-143.259718 111.230939z" p-id="7546" fill="#909399"></path><path d="M409.67163 485.036474h204.554412v54.541022H409.67163zM409.67163 367.461177h204.554412v54.541021H409.67163z" p-id="7547" fill="#909399"></path><path d="M74.853203 378.205656v486.469072L331.18577 620.826222 74.853203 378.205656zM691.688618 620.826222l256.332567 243.848506v-486.469072L691.688618 620.826222zM651.473569 658.790047c-77.360248 49.117618-202.81483 49.117618-280.175078 0l-11.563106-10.949136-279.97042 276.695913c7.265314 13.916658 21.898271 23.535525 38.680123 23.535525h785.881883c16.884181 0 31.41481-9.516538 38.680124-23.535525l-280.072749-276.695913-11.460777 10.949136z" p-id="7548" fill="#909399"></path></svg>